<svg xmlns="http://www.w3.org/2000/svg" width="516" height="43" viewBox="0 0 516 43">
  <g id="logo" transform="translate(-185 -8)">
    <text id="CHAYOT_CHRONICLES" data-name="CHAYOT   CHRONICLES" transform="translate(185 41)" fill="#506478" font-size="45" font-family="neo-latina, neo latina"><tspan x="0" y="0">C</tspan><tspan y="0" xml:space="preserve" fill="#011426">HAYOT   </tspan><tspan y="0">C</tspan><tspan y="0" fill="#011426">HRONICLES</tspan></text>
    <g id="Polygon_1" data-name="Polygon 1" transform="translate(369 14)" fill="#777678">
      <path d="M 11.74884414672852 26.49770545959473 L 12.74332046508789 19.70782089233398 L 12.90441036224365 18.60795974731445 L 11.97459030151367 19.21711921691895 L 6.265138149261475 22.95763778686523 L 10.74895000457764 17.77298927307129 L 11.46815967559814 16.94136047363281 L 10.36868953704834 16.94592094421387 L 3.544832468032837 16.97422027587891 L 10.10286998748779 15.05830955505371 L 11.15493965148926 14.75094985961914 L 10.23320960998535 14.15789031982422 L 4.477968215942383 10.45482921600342 L 11.00971031188965 12.42189979553223 L 12.06803035736084 12.74061965942383 L 11.6086597442627 11.73532962799072 L 8.756877899169922 5.494513988494873 L 13.18535995483398 10.70083999633789 L 13.90870952606201 11.55123996734619 L 14.06151008605957 10.44532012939453 L 15 3.653065919876099 L 15.93848991394043 10.44532012939453 L 16.09128952026367 11.55123996734619 L 16.81464004516602 10.70083999633789 L 21.24311447143555 5.494513988494873 L 18.3913402557373 11.73532962799072 L 17.93197059631348 12.74061965942383 L 18.99028968811035 12.42189979553223 L 25.52204132080078 10.45481967926025 L 19.76679039001465 14.15789985656738 L 18.84506988525391 14.75096035003662 L 19.89712905883789 15.05832004547119 L 26.45516777038574 16.97422981262207 L 19.63130950927734 16.94593048095703 L 18.53183937072754 16.94137001037598 L 19.25105094909668 17.77300071716309 L 23.73485374450684 22.95763778686523 L 18.02540016174316 19.21711921691895 L 17.09557914733887 18.60795974731445 L 17.25666999816895 19.70782089233398 L 18.25114440917969 26.49769401550293 L 15.45645046234131 20.24745941162109 L 15 19.22662925720215 L 14.54354953765869 20.24745941162109 L 11.74884414672852 26.49770545959473 Z" stroke="none"/>
      <path d="M 14.99999618530273 7.306219100952148 L 14.25119972229004 12.72558975219727 L 10.70674133300781 8.558568954467773 L 12.98217010498047 13.53809928894043 L 7.740713119506836 11.9596061706543 L 12.34720993041992 14.92352962493896 L 7.089630126953125 16.45952033996582 L 12.56554985046387 16.43680953979492 L 8.983043670654297 20.57927703857422 L 13.56022071838379 17.58055877685547 L 12.76713943481445 22.99539566040039 L 15 18.00170135498047 L 17.23284530639648 22.9953727722168 L 16.43976974487305 17.58055877685547 L 21.01694869995117 20.57927703857422 L 17.43445014953613 16.43682098388672 L 22.91036987304688 16.45952987670898 L 17.65279006958008 14.92354011535645 L 22.25931358337402 11.95958518981934 L 17.01782035827637 13.53808975219727 L 19.29324150085449 8.558576583862305 L 15.74878978729248 12.72558975219727 L 14.99999618530273 7.306219100952148 M 15 0 L 16.43376922607422 10.37688064575195 L 23.19300079345703 2.430419921875 L 18.84611129760742 11.94313049316406 L 28.7847900390625 8.950040817260742 L 20.03734016418457 14.57837963104248 L 30 17.48894119262695 L 19.62924003601074 17.44593048095703 L 26.45281028747559 25.33605003356934 L 17.75139045715332 19.63536071777344 L 19.26943969726562 30 L 15 20.4515495300293 L 10.73055076599121 30 L 12.24860000610352 19.63536071777344 L 3.54718017578125 25.33605003356934 L 10.37075996398926 17.44591903686523 L 0 17.48892974853516 L 9.96265983581543 14.57837009429932 L 1.2152099609375 8.950050354003906 L 11.15387916564941 11.94314002990723 L 6.806989669799805 2.430419921875 L 13.56621932983398 10.37688064575195 L 15 0 Z" stroke="none" fill="#777678"/>
    </g>
  </g>
</svg>
